# xmcd
#
# Track frame offsets: 
#        150
#        22875
#        43290
#        72478
#        110222
#        125334
#
# Disc length: 1883 seconds
#
# Revision: 0
# Processed by: cddbd v1.5.2PL0 Copyright (c) Steve Scherf et al.
# Submitted via: ExactAudioCopy v0.99pb4
#
DISCID=55075906
DTITLE=Herman Kelly and Life - Percussion Explotion
DYEAR=1978
DGENRE=Funk
TTITLE0=dance To The Drummer's Beat
TTITLE1=Time After Time
TTITLE2=A Refreshing Love
TTITLE3=Who's The Funky D.J.?
TTITLE4=Share Your Love
TTITLE5=Do The Handbone
EXTD=
EXTT0=
EXTT1=
EXTT2=
EXTT3=
EXTT4=
EXTT5=
PLAYORDER=
